<svg width="113" height="111" xmlns="http://www.w3.org/2000/svg" xmlns:xlink="http://www.w3.org/1999/xlink"><defs><ellipse id="a" cx="58.757" cy="55" rx="51.036" ry="50"/></defs><g transform="translate(1 1)" fill="none" fill-rule="evenodd"><mask id="b" fill="#fff"><use xlink:href="#a"/></mask><use fill="#EA4DC3" xlink:href="#a"/><path d="M61 86c19.882 0 36-8.283 36-18.5s-16.118 0-36 0-36-10.217-36 0S41.118 86 61 86z" stroke="#05F" stroke-width="2" mask="url(#b)"/><path d="M55.82 109c28.197 0 54.964-21.84 54.964-49.417S93.917 0 65.72 0 .784 26.869.784 54.445C.784 82.022 27.623 109 55.82 109z" stroke="#232045" stroke-width="2"/><circle fill="#FFA9EA" fill-rule="nonzero" cx="84" cy="37" r="8"/><circle fill="#FFA9EA" fill-rule="nonzero" cx="40" cy="38" r="8"/><circle stroke="#4200FF" fill="#4200FF" fill-rule="nonzero" cx="40" cy="31" r="3"/><circle stroke="#4200FF" fill="#4200FF" fill-rule="nonzero" cx="84" cy="31" r="3"/></g></svg>