<?xml version="1.0" encoding="UTF-8"?>
<svg width="71px" height="50px" viewBox="0 0 71 50" version="1.1" xmlns="http://www.w3.org/2000/svg" xmlns:xlink="http://www.w3.org/1999/xlink">
    <defs>
        <polygon id="path-1" points="0.100494655 0.016704253 19.9053054 0.016704253 19.9053054 34 0.100494655 34"></polygon>
        <polygon id="path-3" points="0 0.0686805112 25.9209183 0.0686805112 25.9209183 36.8890058 0 36.8890058"></polygon>
    </defs>
    <g id="Child---Login" stroke="none" stroke-width="1" fill="none" fill-rule="evenodd">
        <g id="Child-/-Account-/-Balance-Copy" transform="translate(-152.000000, -83.000000)">
            <rect fill="#FFFFFF" x="0" y="0" width="375" height="812"></rect>
            <g id="Group-11" transform="translate(152.000000, 83.000000)">
                <g id="Group-3" transform="translate(21.000000, 16.000000)">
                    <mask id="mask-2" fill="white">
                        <use xlink:href="#path-1"></use>
                    </mask>
                    <g id="Clip-2"></g>
                    <path d="M9.1574012,22.0618639 C8.38183234,22.7100838 7.64997605,23.7028605 6.96183234,25.0401938 C6.2734491,26.3774103 5.7528503,27.7232729 5.40003593,29.0780151 C5.11093413,30.2177746 5.35620359,30.7537127 6.13560479,30.6857127 C6.41907784,30.6610598 6.66961677,30.6042763 6.8877006,30.5155959 C7.10554491,30.4269155 7.30099401,30.2849567 7.47356886,30.0899533 C7.64602395,29.8947162 7.7934491,29.6845237 7.91572455,29.4592591 C8.03776048,29.2335271 8.16099401,28.9208674 8.28506587,28.5211629 C8.40901796,28.1209911 8.51596407,27.7285306 8.60566467,27.3434309 C8.69524551,26.9580976 8.80590419,26.446345 8.938,25.8077058 C9.01356886,25.4640838 9.05835928,25.0851766 9.0722515,24.6707505 C9.08602395,24.255857 9.10231138,23.7577746 9.12123353,23.1762694 C9.13991617,22.5944137 9.15213174,22.2229842 9.1574012,22.0618639 M8.71297006,17.9013622 L8.91117365,15.7784069 C8.32362874,16.3812935 7.69991617,16.8810117 7.03991617,17.2777952 C6.37991617,17.6744619 5.72506587,17.9010117 5.07572455,17.9575615 C4.5088982,18.007101 3.94638323,17.9429567 3.38853892,17.7652454 C2.83057485,17.5874172 2.32578443,17.3064206 1.8740479,16.9219052 C1.4219521,16.5375065 1.04446707,16.0535615 0.741113772,15.4703038 C0.437520958,14.8871629 0.251053892,14.2154584 0.181353293,13.4550735 C0.0893772455,12.452833 0.0758443114,11.5280564 0.140874251,10.68051 C0.205784431,9.83319725 0.286023952,8.78679175 0.380994012,7.54164399 C0.476083832,6.29661306 0.632610778,5.30722474 0.851053892,4.57394639 C1.06937725,3.84066804 1.3282994,3.09523849 1.62758084,2.33719038 C1.85141317,1.79505979 2.20482635,1.36661306 2.68782036,1.05149966 C3.17045509,0.736503093 3.65368862,0.557857045 4.13788024,0.515678351 C4.55069461,0.479575258 4.91416766,0.549561512 5.22782036,0.725637113 C5.54147305,0.901595876 5.71788024,1.20268866 5.75692216,1.62926598 C5.76865868,1.75626942 5.76662275,1.89565773 5.75165269,2.04813196 C5.73632335,2.20060619 5.70183234,2.36604948 5.64817964,2.54492921 C5.48805988,3.09336907 5.36985629,3.73936907 5.2934491,4.48222818 C5.21704192,5.22508729 5.11512575,6.21576082 4.9877006,7.45378144 C4.86003593,8.69215258 4.75895808,9.67406323 4.68410778,10.3997471 C4.60913772,11.1253141 4.59752096,11.7676921 4.64877844,12.3265306 C4.67536527,12.6175753 4.72183234,12.8981045 4.78841916,13.1681182 C4.85464671,13.4382488 4.95105389,13.6762488 5.07704192,13.8824687 C5.2031497,14.0886887 5.36075449,14.2507436 5.55021557,14.3692179 C5.73955689,14.4876921 5.96997605,14.5351285 6.24171257,14.5114103 C6.67847904,14.473321 7.05728144,14.2531973 7.37752096,13.8510392 C7.69776048,13.4487643 7.96362874,12.9754515 8.17572455,12.4305168 C8.38746108,11.885699 8.54782036,11.3277952 8.65608383,10.757156 C8.76458683,10.1864 8.82518563,9.7134378 8.83847904,9.33768522 L9.66518563,2.75091546 C9.71320958,2.36347904 9.84686228,2.00349966 10.066982,1.67086048 C10.2758443,1.35025567 10.5305749,1.0698433 10.8304551,0.828805498 C11.1302156,0.587767698 11.4466228,0.400358763 11.7802754,0.266695533 C12.1138084,0.133149141 12.4341677,0.0528810997 12.7420719,0.0258914089 C13.1084192,-0.00600549828 13.4230299,0.0451697595 13.6859042,0.179183505 C13.9484192,0.313314089 14.0951257,0.547575258 14.1257844,0.881850172 C14.1353653,0.985836426 14.1287784,1.10863368 14.106024,1.24989141 C14.0787186,1.56149966 14.0426707,1.97978144 13.9976407,2.50450309 C13.9522515,3.02945842 13.900515,3.62650309 13.8431497,4.29563711 C13.7856647,4.96488797 13.7054251,5.90310103 13.6026707,7.1106268 C13.4996766,8.3179189 13.415485,9.28908041 13.349497,10.024345 C13.2071018,11.7606818 13.0706946,13.624723 12.9397964,15.6162351 C13.2807545,15.3895684 13.6454251,15.1139464 14.0339281,14.7900701 C14.4224311,14.4659601 14.8485389,14.0400838 15.312012,13.5124412 C15.7752455,12.9849155 16.2863832,12.3280495 16.8454251,11.5425443 C17.4042275,10.7569223 18.0232695,9.78330722 18.7024311,8.62169897 L19.9053054,12.3933622 C19.7251856,12.7666612 19.486503,13.1508261 19.1896168,13.545857 C18.8709341,13.9658914 18.5274611,14.3765787 18.1597964,14.7778021 C17.617521,15.3558021 17.2248263,15.7475615 16.9820719,15.9533141 C16.9044671,16.0176921 16.503988,16.3860838 15.7799162,17.0583725 C15.5614731,17.2747574 14.8285389,17.8727368 13.5803952,18.8523107 C13.2760838,19.0879739 13.089497,19.4844069 13.0201557,20.0419601 C12.9506946,20.5993966 12.9062635,21.6276921 12.886982,23.1269636 C12.858,23.5568124 12.8456647,23.8868811 12.8497365,24.117754 C12.8281796,24.6739052 12.8080599,25.2043519 12.7893772,25.7082763 C12.7703353,26.2123175 12.7078204,26.7913691 12.6015928,27.4454309 C12.4952455,28.0992591 12.3545269,28.704132 12.1797964,29.259699 C12.0047066,29.8150323 11.7591976,30.3738708 11.4424311,30.9360976 C11.1257844,31.4979739 10.7632695,31.9855409 10.3559641,32.3987986 C9.9482994,32.811589 9.44267066,33.1604687 8.8391976,33.446022 C8.23560479,33.7307574 7.56267066,33.9057814 6.82027545,33.97051 C6.2191976,34.0229704 5.65632335,34.0054447 5.13153293,33.9179326 C4.60674251,33.8303038 4.11955689,33.6667299 3.66985629,33.4277952 C3.22027545,33.1882763 2.83811976,32.8417333 2.52338922,32.3879326 C2.2082994,31.9338983 1.99776048,31.3868605 1.89153293,30.7463519 C1.68506587,29.5346199 1.90949701,28.2159808 2.56446707,26.7900838 C2.93165269,25.992077 3.19045509,25.4387299 3.34075449,25.1301595 C3.49093413,24.8211216 3.72949701,24.3740976 4.05692216,23.7885031 C4.38506587,23.2144756 4.73572455,22.6910392 5.10925749,22.2177265 C5.85213174,21.2362832 6.46722156,20.4461045 6.95416766,19.8469567 C7.44063473,19.2474584 8.0271018,18.5990048 8.71297006,17.9013622" id="Fill-1" fill="#FFFFFF" mask="url(#mask-2)"></path>
                </g>
                <g id="Group-6">
                    <mask id="mask-4" fill="white">
                        <use xlink:href="#path-3"></use>
                    </mask>
                    <g id="Clip-5"></g>
                    <path d="M4.58794159,20.4378188 C4.61198584,20.9175185 4.64695929,21.5636591 4.69366726,22.3762406 C4.74003009,23.1889403 4.81480885,24.0560169 4.91823363,24.9772342 C5.02131327,25.8983332 5.15913628,26.829362 5.33193274,27.7702022 C5.50438407,28.7112789 5.73217168,29.5582597 6.01518053,30.3114994 C6.29818938,31.0648572 6.63664956,31.674707 7.03067611,32.1403396 C7.42447257,32.6059722 7.90029558,32.8243077 8.45768496,32.7948732 C9.03773805,32.7641383 9.52207434,32.5300808 9.91069381,32.0932917 C10.2994283,31.6559115 10.6136142,31.0992565 10.8534814,30.4237997 C11.0932336,29.7481064 11.2715522,28.9876559 11.3891274,28.1424482 C11.5063575,27.2972406 11.5836673,26.4510872 11.6210566,25.6042246 C11.658331,24.7574802 11.6692602,23.9499818 11.6537292,23.1822022 C11.6378531,22.4146591 11.6165699,21.7611895 11.5895345,21.222739 L11.5481186,20.3976272 C10.5930212,20.0680553 9.84028673,19.7738284 9.29003009,19.5149466 C8.73977345,19.2563013 8.32296814,19.0017933 8.03903894,18.7516591 C7.75522478,18.5019978 7.56919823,18.232477 7.48118938,17.9433332 C7.39318053,17.6540712 7.33945487,17.314215 7.31989735,16.9236463 C7.30908319,16.7076751 7.30402124,16.4945409 7.30459646,16.2836527 C7.30528673,16.0728827 7.32726018,15.8852821 7.3697115,15.7204962 C7.41216283,15.5557102 7.47877345,15.4197677 7.56977345,15.3129051 C7.66031327,15.2058061 7.79031327,15.1477645 7.95954336,15.1386623 C8.07240177,15.1327518 8.1777823,15.1514291 8.27614513,15.1949307 C8.37439292,15.2387869 8.49898584,15.2989562 8.64980885,15.3762661 C9.03279115,15.5753332 9.37999469,15.7368093 9.69141947,15.8604578 C10.0029593,15.9839882 10.2679062,16.0828125 10.4864903,16.1564578 C10.7391274,16.2408604 10.9684106,16.301739 11.1739947,16.3394482 C11.1662867,16.1860105 11.1537469,15.8816176 11.1363752,15.4263875 C11.1192336,14.9715121 11.1276319,14.4497294 11.1614549,13.8615121 C11.1951628,13.2736495 11.2705168,12.656707 11.3876319,12.0109211 C11.5047469,11.3650169 11.6930743,10.7685249 11.9533044,10.2219179 C12.2133044,9.67495623 12.5638442,9.21511597 13.0049239,8.84227891 C13.4460035,8.46967827 14.0050035,8.26517348 14.6815788,8.22935559 C14.8862425,8.21848019 15.0975788,8.22793706 15.3158177,8.25760799 C15.5334814,8.2871607 15.7333133,8.35324058 15.9154283,8.45537476 C16.0971982,8.55786358 16.2523929,8.6995984 16.3812425,8.88093387 C16.509977,9.06262396 16.5818796,9.30034601 16.5964903,9.59398179 C16.6006319,9.67696581 16.6006319,9.73323419 16.5964903,9.76314153 C16.5922336,9.79316709 16.5914283,9.83194026 16.5937292,9.87898818 L15.7843929,14.4959498 L15.701446,15.9064419 C16.8043752,15.6701383 17.7486584,15.335247 18.5345257,14.9021224 C19.320623,14.4688796 19.9639504,13.9718029 20.4648531,13.4111288 C20.9656407,12.8503364 21.3275699,12.2435601 21.5508708,11.5905633 C21.7741717,10.9378029 21.8689681,10.2741671 21.8351451,9.59930128 C21.8021274,8.94157604 21.6462425,8.27557604 21.3673752,7.6015377 C21.0888531,6.92749936 20.6341982,6.32438754 20.0037558,5.79243866 C19.3729681,5.26048978 18.5430389,4.83965911 17.513508,4.52888275 C16.4838619,4.2182246 15.2018088,4.10344185 13.6678088,4.18465272 C12.5162159,4.24564952 11.484269,4.52663674 10.5719681,5.02725974 C9.65943717,5.52776454 8.85780885,6.18418946 8.1668531,6.99606166 C7.4757823,7.80817029 6.88813628,8.74392748 6.40414513,9.80333323 C5.91992389,10.862739 5.53303009,11.9849147 5.24392389,13.1691511 C4.95458761,14.3531511 4.75809204,15.5678859 4.6547823,16.8127645 C4.55147257,18.0577613 4.52926903,19.2659946 4.58794159,20.4378188 M13.8598177,0.0965664537 C15.7828973,-0.00521309904 17.4819858,0.170921086 18.956623,0.624496166 C20.4312602,1.07818946 21.6716673,1.71971981 22.6774991,2.54849617 C23.6832159,3.37786358 24.4579239,4.35050256 25.001623,5.46700415 C25.5453221,6.58338754 25.8481186,7.75355687 25.9095522,8.97751214 C25.9670743,10.1238029 25.8062425,11.2698572 25.4275168,12.4157933 C25.0487912,13.5616112 24.4456142,14.6315377 23.6172956,15.6252182 C22.7887469,16.6188987 21.7250478,17.4962597 20.4261982,18.2567102 C19.1271186,19.0176335 17.5862159,19.5858732 15.802915,19.9615473 C15.8116584,20.8175121 15.8225876,21.603378 15.8355876,22.3183173 C15.8394991,22.6231831 15.8430655,22.9281671 15.8473221,23.2329147 C15.8511186,23.5378987 15.8564106,23.8162853 15.8634283,24.0679562 C15.8701009,24.3202182 15.875623,24.5397358 15.8794195,24.7273364 C15.8828708,24.9150553 15.8865522,25.0440233 15.8902336,25.1142406 C15.9082956,25.934624 15.8566407,26.7891703 15.735269,27.678116 C15.6136673,28.5669435 15.4169416,29.4391032 15.145092,30.2950681 C14.8730124,31.1510329 14.5299504,31.9670425 14.1167115,32.7427422 C13.7033575,33.5184419 13.2109681,34.2045377 12.6398885,34.8020936 C12.0683487,35.398822 11.4197292,35.8830137 10.6940301,36.2547869 C9.96833097,36.6260872 9.1657823,36.8353204 8.28626903,36.8817773 C7.35349027,36.9311895 6.5078,36.7272757 5.74954336,36.2700361 C4.99094159,35.8124419 4.3147115,35.1780042 3.72096814,34.3670776 C3.12722478,33.5554419 2.61228673,32.6111735 2.17638407,31.5341543 C1.74025133,30.4570169 1.37291504,29.3262118 1.07403009,28.1424482 C0.775145133,26.9585665 0.541145133,25.7623907 0.372260177,24.5539211 C0.203260177,23.3458061 0.0918973451,22.2044802 0.0381716814,21.1300617 C-0.0544389381,19.2853812 0.0213752212,17.4957869 0.265844248,15.7617518 C0.510428319,14.027953 0.902729204,12.3942789 1.4427469,10.861084 C1.9827646,9.32800735 2.66060531,7.91952492 3.47603894,6.6351639 C4.29124248,5.35092109 5.22643717,4.23571981 6.28162301,3.29003291 C7.33692389,2.34434601 8.49910088,1.59524377 9.76826903,1.04213514 C11.0373221,0.489144728 12.4011717,0.173876358 13.8598177,0.0965664537" id="Fill-4" fill="#FFFFFF" mask="url(#mask-4)"></path>
                </g>
                <path d="M42.0610504,25.7109798 C42.39082,26.168778 42.7874837,26.3776412 43.2511619,26.3375693 C44.0590734,26.2676765 44.6728113,25.5835418 45.091773,24.2853983 C45.4162393,23.2618173 45.5559334,22.2479048 45.5110963,21.2445927 L46.3171998,15.3917641 C44.9383385,15.5109315 43.808974,16.5115643 42.9292267,18.3938957 C41.9764384,20.3983066 41.4781681,21.7437442 41.4340542,22.4306746 C41.3430541,23.9090252 41.5520529,25.0024991 42.0610504,25.7109798 M44.1646575,36.7924936 C43.4737805,38.1314079 42.9514042,39.4757972 42.5972876,40.8263603 C42.3060875,41.951053 41.8489179,42.6575534 42.645379,42.5887089 C42.9306731,42.5641299 43.1796877,42.5077497 43.3933871,42.4198012 C43.6068455,42.3320856 43.8004164,42.1906691 43.9742204,41.9963669 C44.1476628,41.8017153 44.4222298,41.3260943 44.5456523,41.1070967 C44.6693159,40.8879825 44.6672669,40.8449984 44.7916537,40.4407847 C44.91592,40.036338 45.0260843,39.6417927 45.1222671,39.2572655 C45.2184499,38.8725053 45.3270472,38.3624038 45.4479387,37.7267282 C45.523993,37.3843697 46.0343163,36.817888 46.0476951,36.416004 C46.0611945,36.0141201 46.3216594,35.5334901 46.3416674,34.942313 C46.3615548,34.3505534 46.3742104,33.9744133 46.3795137,33.8138926 C45.5937798,34.4606346 44.855414,35.4535793 44.1646575,36.7924936 M47.0233841,11.6545926 C47.0843722,11.6669404 47.4158293,11.7027022 47.5143021,11.729145 C47.6125339,11.7559373 47.7650042,11.8127835 47.8851724,11.8140649 C48.0054612,11.8153462 48.2198838,11.9021299 48.376211,11.8886172 L48.7694998,11.9921752 C49.3687741,12.1536277 49.6088696,12.1328928 49.9181491,12.3635393 C50.0010736,12.4842209 50.1428167,12.6715338 50.196332,12.8451011 C50.3719439,13.1903719 50.606495,15.5307345 50.6853215,17.5460952 C50.7072579,18.1718694 50.6269851,18.9557178 50.4446234,19.8976407 C50.2622618,20.839913 50.1812657,21.8756088 50.2021174,23.0050775 C50.222728,24.1348957 50.2273081,25.6063735 50.2152552,27.4198603 C50.541891,27.1953878 50.8881732,26.9228056 51.2538607,26.6024633 C52.56173,25.4620447 53.9728932,23.4290942 55.4873506,20.5038448 L57,24.2284356 C56.7262767,24.8952136 56.2059495,25.6811588 55.4392592,26.585689 C54.6594312,27.4802012 53.9929012,28.1751692 53.4399103,28.6707097 C53.3391474,28.7484072 53.2606825,28.8066513 53.2046361,28.8462572 C52.1296305,29.6574804 51.3518515,30.2519192 50.8717812,30.6294572 C50.570095,30.8639478 50.3845996,31.2566292 50.3158976,31.807152 C50.2469545,32.3574418 50.2098313,33.3802074 50.204528,34.8752158 C50.1862075,35.3080856 50.1735518,35.6413581 50.1659585,35.8753827 C50.1452273,36.4041222 50.1252194,36.9241252 50.1056935,37.4357409 C50.0861677,37.9470072 50.0195147,38.5288653 49.9064577,39.1813152 C49.7929186,39.8330662 49.6480418,40.4357757 49.4717066,40.9894437 C49.2952509,41.5425292 49.0504549,42.1017886 48.7376799,42.6672219 C48.4243024,43.2321892 48.0589764,43.7179447 47.6415816,44.1244882 C47.2237047,44.5307987 46.7106092,44.8759529 46.1020541,45.1604169 C45.4933784,45.4441819 44.7897253,45.4867001 44.0661847,45.6834485 C43.2944321,45.8934766 42.8570294,46.0642481 42.334171,45.9764161 C41.8107099,45.8885841 41.1891375,45.8796145 40.7305215,45.6473372 C40.2714234,45.4147105 39.9854061,45.1453899 39.6733544,44.6860773 C39.3614232,44.2266482 39.2150999,43.1040523 39.096137,42.4659305 C38.8893078,41.2681997 39.1156628,39.9574755 39.7744789,38.5345733 C40.1559558,37.7373286 40.4190724,37.1820298 40.5638288,36.8684438 C40.7082235,36.5548579 40.9486805,36.1084754 41.2844766,35.5297625 C41.6200317,34.9507001 41.9698093,34.4254552 42.3336888,33.9542608 C43.0814559,32.9745958 44.0922191,31.6382442 44.582655,31.0460187 C45.0728498,30.4535602 45.271483,30.3596707 45.9617573,29.6634213 L46.1286912,27.5841086 C44.9101346,28.9155677 43.6708468,29.6355807 42.4111895,29.7446135 C41.4843151,29.8246409 40.6064963,29.6287079 39.7780948,29.1558826 C38.9498138,28.6836398 38.302207,28.0621758 37.8355155,27.2918399 C36.9896371,25.9177462 36.7624384,24.5334015 37.2623961,22.5564818 C37.714383,20.7110772 38.2555619,18.8876888 38.7776972,17.6672429 C39.2995913,16.4471464 40.0199982,15.3629916 40.9386766,14.4151278 C43.1368996,12.8092228 43.5156044,11.1298137 44.8824127,11.0116948 C45.5002486,10.9583432 45.9676633,11.0875285 46.2840541,11.3993672 C46.3229853,11.4312849 46.1612342,11.3110692 46.2709164,11.3688473" id="Fill-7" fill="#FFFFFF"></path>
                <path d="M56.7894303,27.7314942 C57.1038653,28.1953972 57.4820838,28.4070455 57.9242006,28.3664393 C58.6945435,28.2956144 59.279742,27.6023568 59.6792217,26.2869027 C59.9851522,25.2613584 60.1188101,24.2458477 60.0805401,23.2404885 C60.0796207,23.2172343 60.080655,23.1940982 60.083643,23.1709621 L60.7696309,17.8771563 C60.8104293,17.5611593 60.5164509,17.307016 60.2213233,17.4055807 C59.1868826,17.7512061 58.3188534,18.721625 57.6172357,20.3168374 C56.7087529,22.347977 56.2336526,23.7113559 56.19159,24.4074465 C56.1048216,25.9055107 56.3041017,27.013566 56.7894303,27.7314942 M58.7952179,38.9607791 C58.1365822,40.3174297 57.6383819,41.6798643 57.300847,43.0484371 C57.023073,44.1881275 57.2638411,44.7233275 58.0231511,44.653565 C58.2951788,44.6286582 58.532614,44.5716442 58.7363762,44.4825229 C58.9399086,44.3934016 59.1244783,44.2502173 59.2903152,44.0532061 C59.4555774,43.8560768 59.5975099,43.6466713 59.7151932,43.4246353 C59.8328765,43.2025993 59.9510195,42.8867203 60.0696222,42.4769984 C60.187995,42.0670403 60.2930366,41.6673519 60.3848617,41.2778151 C60.4765719,40.8879241 60.5800045,40.3710205 60.6953893,39.7268682 C60.767907,39.3798263 60.8105442,39.0026838 60.8234158,38.5956768 C60.8361725,38.1884338 60.8519173,37.6849869 60.8709948,37.0858084 C60.8712247,37.0797883 60.8713396,37.0740043 60.8715694,37.0679842 C60.8846709,36.6537766 60.3771617,36.4560572 60.1226026,36.7777202 C59.6614083,37.3602548 59.2189467,38.0878624 58.7952179,38.9607791 M57.085937,47.9162312 C56.5868174,47.8272279 56.1186126,47.6648029 55.6813226,47.4294282 C55.2436879,47.1938174 54.8763873,46.8433523 54.5789612,46.3779148 C54.2814201,45.9124773 54.0758191,45.3565019 53.9623881,44.7098708 C53.7651766,43.4961684 53.9810059,42.1679658 54.6091865,40.7259712 C54.9729244,39.9182134 55.2238058,39.3553917 55.3618309,39.0377421 C55.4995111,38.7198565 55.7287867,38.2676396 56.048968,37.6812096 C56.3689194,37.0943074 56.702432,36.5621765 57.0493909,36.0845807 C57.7623861,35.09197 58.3526414,34.2956622 58.8202715,33.6955394 C59.2627331,33.1272878 59.7908139,32.5115835 60.404399,31.8488987 C60.4714003,31.7766573 60.5128882,31.6823422 60.5203584,31.5829512 L60.5790851,30.8064745 C60.608391,30.4168196 60.1611025,30.19018 59.876663,30.4497531 C58.9705936,31.2771058 58.0528018,31.7334541 57.1234026,31.8187981 C56.2395138,31.9000106 55.4025143,31.7014649 54.6127491,31.2223346 C53.822869,30.7436764 53.2053765,30.1140432 52.7603866,29.333435 C51.9539572,27.9410178 51.7889248,26.2435815 52.2655191,24.2401817 C52.6964882,22.3702868 53.1610154,20.8170971 53.6588709,19.5804947 C54.1564965,18.3441284 54.8432889,17.2455164 55.7192479,16.285013 C56.9912388,14.8894087 58.2787445,14.1315825 59.58211,14.0118885 C60.171216,13.9577074 60.6168955,14.0887334 60.9185738,14.4047305 C60.9555797,14.4370738 61.0124676,14.4999899 61.0891226,14.5935968 C61.1657777,14.6875578 61.2192178,14.744926 61.2497879,14.7658193 C61.2798983,14.7868307 61.3324191,14.8294437 61.4065457,14.8936582 C61.4805575,14.9579908 61.5466394,14.9964723 61.6050214,15.0087487 C61.6631735,15.021143 61.7389091,15.040974 61.8330327,15.0677694 C61.9265818,15.0949189 62.0308188,15.1090839 62.1453991,15.1103824 C62.2603242,15.1116808 62.3919134,15.1053066 62.5409713,15.0916138 L63.2884441,15.0053254 C63.7983667,14.958463 64.1632538,15.0840591 64.3835652,15.3817597 C64.4627486,15.5040507 64.5510111,15.6665938 64.6488123,15.8697431 C64.8162582,16.219618 64.9375041,17.4154962 65.0126652,19.4577316 C65.0335815,20.0918504 64.9570414,20.8861514 64.7831598,21.8406347 C64.6092781,22.7954722 64.5320484,23.8448608 64.5519305,24.9895089 C64.5683648,25.9413953 64.5739961,27.1325518 64.5689394,28.5632144 C64.5676752,28.9352811 64.9918637,29.1374861 65.2671093,28.8953831 C65.3615777,28.8122819 65.4574252,28.7255214 65.5548817,28.6348656 C66.5540404,27.7089483 67.6165229,26.202267 68.7422141,24.1149397 C69.0879088,23.4739745 70.0040916,23.5347659 70.2648566,24.2169275 L70.9708414,26.0646306 C71.0127891,26.1741731 71.0089966,26.2955197 70.9625668,26.4030555 C70.6873212,27.0403614 70.2148642,27.7785928 69.5455405,28.6177495 C68.8079513,29.5169895 68.1766678,30.2172114 67.6520347,30.7185336 C67.6433004,30.7267965 67.6341064,30.7348233 67.6247975,30.7423779 C67.5357305,30.8153276 67.4656262,30.8704529 67.4148294,30.9085803 C66.3898125,31.7306211 65.6482009,32.3329867 65.1904543,32.7155591 C64.9027968,32.9530586 64.7259271,33.3509764 64.6604198,33.9089584 C64.5947975,34.4665863 64.5592857,35.5029904 64.554229,37.0179346 C64.5367604,37.4565767 64.5246932,37.7942933 64.5174529,38.0313206 C64.4976858,38.5672288 64.4786083,39.094166 64.4599904,39.6126041 C64.4414875,40.1306881 64.377819,40.7203052 64.2700192,41.3813374 C64.1617598,42.0418975 64.0236198,42.6526441 63.8554844,43.2136952 C63.687349,43.7741561 63.4538213,44.3408731 63.1555907,44.9138464 C62.8567854,45.4863476 62.5085624,45.9785805 62.1104619,46.3904272 C61.7120166,46.8022738 61.2227805,47.1520307 60.6425237,47.440288 C60.062152,47.727837 59.4152387,47.9046631 58.7013241,47.9702942 C58.1232509,48.0234128 57.584597,48.0052345 57.085937,47.9162312" id="Fill-9" fill="#FFFFFF"></path>
            </g>
        </g>
    </g>
</svg>