<?xml version="1.0" encoding="utf-8"?>
<!-- Generator: Adobe Illustrator 21.1.0, SVG Export Plug-In . SVG Version: 6.00 Build 0)  -->
<svg version="1.1" id="Layer_1" xmlns="http://www.w3.org/2000/svg" xmlns:xlink="http://www.w3.org/1999/xlink" x="0px" y="0px"
	 viewBox="0 0 245 256" style="enable-background:new 0 0 245 256;" xml:space="preserve">
<style type="text/css">
	.st0{filter:url(#Adobe_OpacityMaskFilter);}
	.st1{fill:#FFFFFF;}
	.st2{mask:url(#mask-2);fill:#FFA9EA;}
	.st3{fill:#FFA9EA;}
	.st4{filter:url(#Adobe_OpacityMaskFilter_1_);}
	.st5{mask:url(#mask-4);fill:#FFA9EA;}
	.st6{filter:url(#Adobe_OpacityMaskFilter_2_);}
	.st7{mask:url(#mask-6);fill:#FFA9EA;}
	.st8{fill:#EA4DC3;}
</style>
<title>Group 28</title>
<desc>Created with Sketch.</desc>
<text transform="matrix(1 0 0 1 100 400)"><tspan x="0" y="0" style="font-family:'MyriadPro-Regular'; font-size:12px;">$text-input-placeholder-color</tspan><tspan x="148.5" y="0" style="font-family:'MyriadPro-Regular'; font-size:12px; letter-spacing:28;">	</tspan><tspan x="180" y="0" style="font-family:'MyriadPro-Regular'; font-size:12px;">#999</tspan></text>
<text transform="matrix(1 0 0 1 100 400)"><tspan x="0" y="0" style="font-family:'MyriadPro-Regular'; font-size:12px;">$text-input-placeholder-color</tspan><tspan x="148.5" y="0" style="font-family:'MyriadPro-Regular'; font-size:12px; letter-spacing:28;">	</tspan><tspan x="180" y="0" style="font-family:'MyriadPro-Regular'; font-size:12px;">#999</tspan></text>
<g id="Child---Login">
	<g id="Child-_x2F_-Account-_x2F_-Balance-Copy" transform="translate(-65.000000, -537.000000)">
		<g id="Group-28" transform="translate(65.000000, 537.000000)">
			<g id="Group-3" transform="translate(0.000000, 14.000000)">
				<g id="Clip-2">
				</g>
				<defs>
					<filter id="Adobe_OpacityMaskFilter" filterUnits="userSpaceOnUse" x="0" y="-0.2" width="245" height="230">
						<feColorMatrix  type="matrix" values="1 0 0 0 0  0 1 0 0 0  0 0 1 0 0  0 0 0 1 0"/>
					</filter>
				</defs>
				<mask maskUnits="userSpaceOnUse" x="0" y="-0.2" width="245" height="230" id="mask-2">
					<g class="st0">
						<polygon id="path-1" class="st1" points="0,-0.2 245,-0.2 245,229.8 0,229.8 						"/>
					</g>
				</mask>
				<path id="Fill-1" class="st2" d="M245,114.8c0,63.5-54.8,115-122.5,115S0,178.3,0,114.8s54.8-115,122.5-115S245,51.3,245,114.8"
					/>
			</g>
			<polygon id="Fill-4" class="st3" points="71,250.8 39.4,250.8 25,192.8 71,192.8 			"/>
			<path id="Fill-6" class="st3" d="M71,252.8c0,1.7-6.9,3-15.5,3s-15.5-1.3-15.5-3s6.9-3,15.5-3S71,251.1,71,252.8"/>
			<polygon id="Fill-8" class="st3" points="175,250.8 206.6,250.8 221,192.8 175,192.8 			"/>
			<path id="Fill-10" class="st3" d="M175,252.8c0,1.7,6.9,3,15.5,3s15.5-1.3,15.5-3s-6.9-3-15.5-3S175,251.1,175,252.8"/>
			<g id="Group-14" transform="translate(9.000000, 0.000000)">
				<g id="Clip-13">
				</g>
				<defs>
					<filter id="Adobe_OpacityMaskFilter_1_" filterUnits="userSpaceOnUse" x="0.6" y="0" width="65.8" height="62.5">
						<feColorMatrix  type="matrix" values="1 0 0 0 0  0 1 0 0 0  0 0 1 0 0  0 0 0 1 0"/>
					</filter>
				</defs>
				<mask maskUnits="userSpaceOnUse" x="0.6" y="0" width="65.8" height="62.5" id="mask-4">
					<g class="st4">
						<polygon id="path-3" class="st1" points="0.6,0 66.4,0 66.4,62.5 0.6,62.5 						"/>
					</g>
				</mask>
				<path id="Fill-12" class="st5" d="M66.4,26.5C47.8,4.2,22.4-6,8.9,3.7c-13.5,9.7-10.1,35.7,7.4,58.8L66.4,26.5z"/>
			</g>
			<g id="Group-17" transform="translate(165.000000, 0.000000)">
				<g id="Clip-16">
				</g>
				<defs>
					<filter id="Adobe_OpacityMaskFilter_2_" filterUnits="userSpaceOnUse" x="0.6" y="0" width="65.8" height="62.5">
						<feColorMatrix  type="matrix" values="1 0 0 0 0  0 1 0 0 0  0 0 1 0 0  0 0 0 1 0"/>
					</filter>
				</defs>
				<mask maskUnits="userSpaceOnUse" x="0.6" y="0" width="65.8" height="62.5" id="mask-6">
					<g class="st6">
						<polygon id="path-5" class="st1" points="0.6,0 66.4,0 66.4,62.5 0.6,62.5 						"/>
					</g>
				</mask>
				<path id="Fill-15" class="st7" d="M0.6,26.5C19.2,4.2,44.6-6,58.1,3.7c13.5,9.7,10.1,35.7-7.4,58.8L0.6,26.5z"/>
			</g>
			<path id="Fill-18" class="st8" d="M156,132.3c0,17.4-15,31.5-33.5,31.5S89,149.7,89,132.3s15-31.5,33.5-31.5S156,114.9,156,132.3
				"/>
			<path id="Fill-20" class="st8" d="M92,73.3c0,2.5-2,4.5-4.5,4.5c-2.5,0-4.5-2-4.5-4.5s2-4.5,4.5-4.5C90,68.8,92,70.8,92,73.3"/>
			<path id="Fill-22" class="st8" d="M162,73.3c0,2.5-2,4.5-4.5,4.5c-2.5,0-4.5-2-4.5-4.5s2-4.5,4.5-4.5C160,68.8,162,70.8,162,73.3
				"/>
			<path id="Fill-24" class="st3" d="M113,140.8c-4.9,0-9-3.4-9-7.5v-1.9c0-4.1,4.1-7.5,9-7.5s9,3.4,9,7.5v1.9
				C122,137.4,117.9,140.8,113,140.8"/>
			<path id="Fill-26" class="st3" d="M135,140.8c-4.9,0-9-3.4-9-7.5v-1.9c0-4.1,4.1-7.5,9-7.5s9,3.4,9,7.5v1.9
				C144,137.4,139.9,140.8,135,140.8"/>
		</g>
	</g>
</g>
</svg>
