<?xml version="1.0" encoding="UTF-8"?>
<svg width="48px" height="47px" viewBox="0 0 48 47" version="1.1" xmlns="http://www.w3.org/2000/svg" xmlns:xlink="http://www.w3.org/1999/xlink">
    <title>Account_Icon</title>
    <g id="Symbols" stroke="none" stroke-width="1" fill="none" fill-rule="evenodd">
        <g id="Navigation/Child/Account" transform="translate(-24.000000, -19.000000)">
            <g id="Navigation">
                <g id="Account" transform="translate(24.000000, 19.000000)">
                    <path d="M21.1472914,46.8403094 C33.7398774,46.8403094 47.7460937,36.7286297 47.7460937,24.1360436 C47.7460937,11.5434576 36.4656329,0 23.8730469,0 C11.2804608,0 0,8.66057628 0,21.2531623 C0,33.8457483 8.55470539,46.8403094 21.1472914,46.8403094 Z" id="Oval-2-Copy-6" fill="#FFA9EA"></path>
                    <g id="Account-Blance" transform="translate(6.000000, 6.000000)" stroke="#232045">
                        <rect id="Rectangle-5" x="0.5" y="5.5" width="40" height="29"></rect>
                        <path d="M0.5,5.43852021 L0.5,5.5 L37.5,5.5 L37.5,0.570099155 L0.5,5.43852021 Z" id="Rectangle-5"></path>
                        <path d="M41.5,25.5 L41.5,13.5 L33,13.5 C30.5147186,13.5 28.5,15.5147186 28.5,18 L28.5,21 C28.5,23.4852814 30.5147186,25.5 33,25.5 L41.5,25.5 Z" id="Rectangle-6"></path>
                    </g>
                    
                </g>
            </g>
        </g>
    </g>
</svg>